<svg height="65px" viewBox="0 -72 464 464" width="50px" xmlns="http://www.w3.org/2000/svg"><path d="m176 232.015625c0 48.601563-39.398438 88-88 88s-88-39.398437-88-88 39.398438-88 88-88 88 39.398437 88 88zm0 0" fill="#434343"/><path d="m464 232.015625c0 48.601563-39.398438 88-88 88s-88-39.398437-88-88 39.398438-88 88-88 88 39.398437 88 88zm0 0" fill="#434343"/><path d="m333.039062 59.070312c10.308594-3.289062 21.394532-3.199218 31.648438.257813 5.375 5.390625.609375 22.207031-3.007812 29.535156-3.949219 7.910157-.742188 17.523438 7.167968 21.472657 7.910156 3.949218 17.523438.742187 21.472656-7.167969 2.144532-4.320313 20.480469-42.992188-3.007812-66.464844-20.578125-20.574219-63.390625-9.277344-78.511719-4.429687l-129.710937 14.398437-4.800782-14.671875h25.710938c8.835938 0 16-7.164062 16-16s-7.164062-16-16-16h-48c-5.140625.00390625-9.964844 2.476562-12.96875 6.648438-3.007812 4.171874-3.824219 9.53125-2.199219 14.40625l13.902344 41.714843-77.054687 154.078125c-2.484376 4.960938-2.222657 10.859375.695312 15.582032 2.917969 4.71875 8.074219 7.589843 13.625 7.585937h16c7.113281.007813 13.378906-4.679687 15.375-11.507813 1.996094-6.828124-.753906-14.152343-6.75-17.980468l53.773438-107.488282 10.511718 26.257813 31.457032 78.71875h-40.367188c-8.835938 0-16 7.164063-16 16s7.164062 16 16 16h64c1.433594-.015625 2.859375-.21875 4.238281-.609375.464844-.125.882813-.351562 1.328125-.511719.878906-.3125 1.722656-.703125 2.53125-1.167969.476563-.285156.910156-.621093 1.375-.957031.679688-.484375 1.324219-1.015625 1.917969-1.601562.40625-.410157.785156-.84375 1.136719-1.296875.226562-.285156.511718-.511719.71875-.816406.285156-.472657.535156-.964844.753906-1.46875.160156-.304688.414062-.5625.558594-.882813l63.839844-140.398437 50.625 139.199218c1.804687 5.570313 6.503906 9.710938 12.257812 10.796875 5.753906 1.085938 11.640625-1.058593 15.347656-5.589843 3.707032-4.53125 4.644532-10.726563 2.441406-16.152344zm-100.09375 124.210938-14.097656-35.203125-28.175781-70.398437 95.105469-10.574219zm0 0" fill="#f7c873"/></svg>