<?xml version="1.0" standalone="no"?><!-- Generator: Gravit.io --><svg xmlns="http://www.w3.org/2000/svg" xmlns:xlink="http://www.w3.org/1999/xlink" style="isolation:isolate" viewBox="0 0 560 315" width="560" height="315"><defs><clipPath id="_clipPath_8YK1kUcxpeUIFBio9hyjam63ggln06G6"><rect width="560" height="315"/></clipPath></defs><g clip-path="url(#_clipPath_8YK1kUcxpeUIFBio9hyjam63ggln06G6)"><g id="Group"><g id="Group"><path d="M 171.293 81.326 L 171.293 81.326 C 179.614 81.326 186.37 88.081 186.37 96.402 L 186.37 115.446 C 186.37 123.766 179.614 130.522 171.293 130.522 L 171.293 130.522 C 162.973 130.522 156.217 123.766 156.217 115.446 L 156.217 96.402 C 156.217 88.081 162.973 81.326 171.293 81.326 Z" style="fill:none;stroke:#000000;stroke-width:1.5869565217391304;stroke-linecap:square;stroke-miterlimit:3;"/><path d="M 148.283 84.5 L 148.283 84.5 C 156.165 84.5 162.565 90.9 162.565 98.783 L 162.565 109.891 C 162.565 117.774 156.165 124.174 148.283 124.174 L 148.283 124.174 C 140.4 124.174 134 117.774 134 109.891 L 134 98.783 C 134 90.9 140.4 84.5 148.283 84.5 Z" style="stroke:none;fill:#F08638;stroke-linecap:square;stroke-miterlimit:3;"/></g><g id="Group"><path d="M 388.707 81.326 L 388.707 81.326 C 380.386 81.326 373.63 88.081 373.63 96.402 L 373.63 115.446 C 373.63 123.766 380.386 130.522 388.707 130.522 L 388.707 130.522 C 397.027 130.522 403.783 123.766 403.783 115.446 L 403.783 96.402 C 403.783 88.081 397.027 81.326 388.707 81.326 Z" style="fill:none;stroke:#000000;stroke-width:1.5869565217391304;stroke-linecap:square;stroke-miterlimit:3;"/><path d="M 411.717 84.5 L 411.717 84.5 C 403.835 84.5 397.435 90.9 397.435 98.783 L 397.435 109.891 C 397.435 117.774 403.835 124.174 411.717 124.174 L 411.717 124.174 C 419.6 124.174 426 117.774 426 109.891 L 426 98.783 C 426 90.9 419.6 84.5 411.717 84.5 Z" style="stroke:none;fill:#F08638;stroke-linecap:square;stroke-miterlimit:3;"/></g><path d=" M 386.313 230.5 C 386.325 230.248 386.326 229.993 386.326 229.738 L 386.326 93.197 C 386.326 56.866 356.83 27.37 320.499 27.37 L 236.327 27.37 C 199.996 27.37 170.5 56.866 170.5 93.197 L 170.5 229.738 C 170.5 229.993 170.501 230.248 170.513 230.5 L 386.313 230.5 Z " fill="rgb(255,208,56)"/><path d="M 191.162 227.326 L 202.207 227.326 C 211.859 227.326 219.696 235.162 219.696 244.814 L 219.696 270.142 C 219.696 279.794 211.859 287.63 202.207 287.63 L 191.162 287.63 C 181.51 287.63 173.674 279.794 173.674 270.142 L 173.674 244.814 C 173.674 235.162 181.51 227.326 191.162 227.326 Z" style="stroke:none;fill:#333238;stroke-linecap:square;stroke-miterlimit:3;"/><path d="M 357.793 227.326 L 368.838 227.326 C 378.49 227.326 386.326 235.162 386.326 244.814 L 386.326 270.142 C 386.326 279.794 378.49 287.63 368.838 287.63 L 357.793 287.63 C 348.141 287.63 340.304 279.794 340.304 270.142 L 340.304 244.814 C 340.304 235.162 348.141 227.326 357.793 227.326 Z" style="stroke:none;fill:#333238;stroke-linecap:square;stroke-miterlimit:3;"/><path d=" M 345.065 68.63 L 284.761 68.63 L 284.761 130.522 L 345.065 130.522 C 360.831 130.522 373.63 117.722 373.63 101.957 L 373.63 97.196 C 373.63 81.43 360.831 68.63 345.065 68.63 Z " fill="rgb(233,248,253)"/><path d=" M 214.935 68.63 L 275.239 68.63 L 275.239 130.522 L 214.935 130.522 C 199.169 130.522 186.37 117.722 186.37 101.957 L 186.37 97.196 C 186.37 81.43 199.169 68.63 214.935 68.63 Z " fill="rgb(233,248,253)"/><path d=" M 168.913 238.435 L 168.913 185.891 C 168.913 147.449 200.123 116.239 238.565 116.239 L 316.675 116.239 C 355.116 116.239 386.326 147.449 386.326 185.891 L 386.326 238.435 L 168.913 238.435 Z " fill="rgb(255,179,51)"/><path d="M 166.533 233.674 L 390.293 233.674 C 394.235 233.674 397.435 236.874 397.435 240.815 L 397.435 240.815 C 397.435 244.757 394.235 247.957 390.293 247.957 L 166.533 247.957 C 162.591 247.957 159.391 244.757 159.391 240.815 L 159.391 240.815 C 159.391 236.874 162.591 233.674 166.533 233.674 Z" style="stroke:none;fill:#4E4C4F;stroke-linecap:square;stroke-miterlimit:3;"/><path d=" M 186.37 177.337 C 186.37 167.265 194.547 159.087 204.62 159.087 C 214.692 159.087 222.87 167.265 222.87 177.337 C 222.87 187.409 214.692 195.587 204.62 195.587 C 194.547 195.587 186.37 187.409 186.37 177.337 Z " fill="rgb(194,232,235)"/><path d=" M 335.543 177.337 C 335.543 167.265 343.721 159.087 353.793 159.087 C 363.866 159.087 372.043 167.265 372.043 177.337 C 372.043 187.409 363.866 195.587 353.793 195.587 C 343.721 195.587 335.543 187.409 335.543 177.337 Z " fill="rgb(194,232,235)"/><path d="M 252.078 152.739 L 304.749 152.739 C 318.241 152.739 329.196 163.693 329.196 177.186 L 329.196 190.183 C 329.196 203.676 318.241 214.63 304.749 214.63 L 252.078 214.63 C 238.585 214.63 227.63 203.676 227.63 190.183 L 227.63 177.186 C 227.63 163.693 238.585 152.739 252.078 152.739 Z" style="stroke:none;fill:#4F424A;stroke-linecap:square;stroke-miterlimit:3;"/><path d="M 252.228 205.902 L 303.011 205.902 C 307.828 205.902 311.739 209.813 311.739 214.63 L 311.739 214.63 C 311.739 219.448 307.828 223.359 303.011 223.359 L 252.228 223.359 C 247.411 223.359 243.5 219.448 243.5 214.63 L 243.5 214.63 C 243.5 209.813 247.411 205.902 252.228 205.902 Z" style="stroke:none;fill:#7E5424;stroke-linecap:square;stroke-miterlimit:3;"/><path d="M 252.228 232.087 L 303.011 232.087 C 307.828 232.087 311.739 235.998 311.739 240.815 L 311.739 240.815 C 311.739 245.632 307.828 249.543 303.011 249.543 L 252.228 249.543 C 247.411 249.543 243.5 245.632 243.5 240.815 L 243.5 240.815 C 243.5 235.998 247.411 232.087 252.228 232.087 Z" style="stroke:none;fill:#FFFFF3;stroke-linecap:square;stroke-miterlimit:3;"/><path d="M 199.462 205.902 L 209.777 205.902 C 213.062 205.902 215.728 208.569 215.728 211.853 L 215.728 211.853 C 215.728 215.138 213.062 217.804 209.777 217.804 L 199.462 217.804 C 196.177 217.804 193.511 215.138 193.511 211.853 L 193.511 211.853 C 193.511 208.569 196.177 205.902 199.462 205.902 Z" style="stroke:none;fill:#DF4641;stroke-linecap:square;stroke-miterlimit:3;"/><path d="M 348.636 205.902 L 358.951 205.902 C 362.236 205.902 364.902 208.569 364.902 211.853 L 364.902 211.853 C 364.902 215.138 362.236 217.804 358.951 217.804 L 348.636 217.804 C 345.351 217.804 342.685 215.138 342.685 211.853 L 342.685 211.853 C 342.685 208.569 345.351 205.902 348.636 205.902 Z" style="stroke:none;fill:#DF4641;stroke-linecap:square;stroke-miterlimit:3;"/><path d=" M 358.194 62.283 C 353.926 44.978 338.289 32.13 319.674 32.13 L 237.152 32.13 C 218.537 32.13 202.9 44.978 198.632 62.283 L 358.194 62.283 Z " fill="rgb(79,66,74)"/></g></g></svg>