<?xml version="1.0" encoding="UTF-8"?>
<svg xmlns="http://www.w3.org/2000/svg" xmlns:xlink="http://www.w3.org/1999/xlink" width="21pt" height="12pt" viewBox="0 0 21 12" version="1.1">
<g id="surface1">
<path style="fill:none;stroke-width:1.586957;stroke-linecap:square;stroke-linejoin:miter;stroke:rgb(0%,0%,0%);stroke-opacity:1;stroke-miterlimit:3;" d="M 171.25 81.313477 C 179.583333 81.313477 186.354167 88.081055 186.354167 96.386719 L 186.354167 115.458984 C 186.354167 123.764648 179.583333 130.532227 171.25 130.532227 C 163.020833 130.532227 156.25 123.764648 156.25 115.458984 L 156.25 96.386719 C 156.25 88.081055 163.020833 81.313477 171.25 81.313477 Z M 171.25 81.313477 " transform="matrix(0.0375,0,0,0.0380952,0,0)"/>
<path style=" stroke:none;fill-rule:nonzero;fill:rgb(94.117647%,52.54902%,21.960784%);fill-opacity:1;" d="M 5.5625 3.21875 C 5.855469 3.21875 6.097656 3.460938 6.097656 3.761719 L 6.097656 4.1875 C 6.097656 4.488281 5.855469 4.730469 5.5625 4.730469 C 5.265625 4.730469 5.023438 4.488281 5.023438 4.1875 L 5.023438 3.761719 C 5.023438 3.460938 5.265625 3.21875 5.5625 3.21875 Z M 5.5625 3.21875 "/>
<path style="fill:none;stroke-width:1.586957;stroke-linecap:square;stroke-linejoin:miter;stroke:rgb(0%,0%,0%);stroke-opacity:1;stroke-miterlimit:3;" d="M 388.75 81.313477 C 380.416667 81.313477 373.645833 88.081055 373.645833 96.386719 L 373.645833 115.458984 C 373.645833 123.764648 380.416667 130.532227 388.75 130.532227 C 396.979167 130.532227 403.75 123.764648 403.75 115.458984 L 403.75 96.386719 C 403.75 88.081055 396.979167 81.313477 388.75 81.313477 Z M 388.75 81.313477 " transform="matrix(0.0375,0,0,0.0380952,0,0)"/>
<path style=" stroke:none;fill-rule:nonzero;fill:rgb(94.117647%,52.54902%,21.960784%);fill-opacity:1;" d="M 15.4375 3.21875 C 15.144531 3.21875 14.902344 3.460938 14.902344 3.761719 L 14.902344 4.1875 C 14.902344 4.488281 15.144531 4.730469 15.4375 4.730469 C 15.734375 4.730469 15.976562 4.488281 15.976562 4.1875 L 15.976562 3.761719 C 15.976562 3.460938 15.734375 3.21875 15.4375 3.21875 Z M 15.4375 3.21875 "/>
<path style=" stroke:none;fill-rule:nonzero;fill:rgb(100%,81.568627%,21.960784%);fill-opacity:1;" d="M 14.488281 8.78125 C 14.488281 8.769531 14.488281 8.761719 14.488281 8.75 L 14.488281 3.550781 C 14.488281 2.167969 13.382812 1.042969 12.019531 1.042969 L 8.863281 1.042969 C 7.5 1.042969 6.394531 2.167969 6.394531 3.550781 L 6.394531 8.75 C 6.394531 8.761719 6.394531 8.769531 6.394531 8.78125 Z M 14.488281 8.78125 "/>
<path style=" stroke:none;fill-rule:nonzero;fill:rgb(20%,19.607843%,21.960784%);fill-opacity:1;" d="M 7.167969 8.660156 L 7.582031 8.660156 C 7.945312 8.660156 8.238281 8.957031 8.238281 9.328125 L 8.238281 10.292969 C 8.238281 10.660156 7.945312 10.957031 7.582031 10.957031 L 7.167969 10.957031 C 6.804688 10.957031 6.511719 10.660156 6.511719 10.292969 L 6.511719 9.328125 C 6.511719 8.957031 6.804688 8.660156 7.167969 8.660156 Z M 7.167969 8.660156 "/>
<path style=" stroke:none;fill-rule:nonzero;fill:rgb(20%,19.607843%,21.960784%);fill-opacity:1;" d="M 13.417969 8.660156 L 13.832031 8.660156 C 14.195312 8.660156 14.488281 8.957031 14.488281 9.328125 L 14.488281 10.292969 C 14.488281 10.660156 14.195312 10.957031 13.832031 10.957031 L 13.417969 10.957031 C 13.054688 10.957031 12.761719 10.660156 12.761719 10.292969 L 12.761719 9.328125 C 12.761719 8.957031 13.054688 8.660156 13.417969 8.660156 Z M 13.417969 8.660156 "/>
<path style=" stroke:none;fill-rule:nonzero;fill:rgb(91.372549%,97.254902%,99.215686%);fill-opacity:1;" d="M 12.941406 2.613281 L 10.679688 2.613281 L 10.679688 4.972656 L 12.941406 4.972656 C 13.53125 4.972656 14.011719 4.484375 14.011719 3.882812 L 14.011719 3.703125 C 14.011719 3.101562 13.53125 2.613281 12.941406 2.613281 Z M 12.941406 2.613281 "/>
<path style=" stroke:none;fill-rule:nonzero;fill:rgb(91.372549%,97.254902%,99.215686%);fill-opacity:1;" d="M 8.058594 2.613281 L 10.320312 2.613281 L 10.320312 4.972656 L 8.058594 4.972656 C 7.46875 4.972656 6.988281 4.484375 6.988281 3.882812 L 6.988281 3.703125 C 6.988281 3.101562 7.46875 2.613281 8.058594 2.613281 Z M 8.058594 2.613281 "/>
<path style=" stroke:none;fill-rule:nonzero;fill:rgb(100%,70.196078%,20%);fill-opacity:1;" d="M 6.335938 9.082031 L 6.335938 7.082031 C 6.335938 5.617188 7.503906 4.429688 8.945312 4.429688 L 11.875 4.429688 C 13.316406 4.429688 14.488281 5.617188 14.488281 7.082031 L 14.488281 9.082031 Z M 6.335938 9.082031 "/>
<path style=" stroke:none;fill-rule:nonzero;fill:rgb(30.588235%,29.803922%,30.980392%);fill-opacity:1;" d="M 6.246094 8.902344 L 14.636719 8.902344 C 14.785156 8.902344 14.902344 9.023438 14.902344 9.175781 C 14.902344 9.324219 14.785156 9.445312 14.636719 9.445312 L 6.246094 9.445312 C 6.097656 9.445312 5.976562 9.324219 5.976562 9.175781 C 5.976562 9.023438 6.097656 8.902344 6.246094 8.902344 Z M 6.246094 8.902344 "/>
<path style=" stroke:none;fill-rule:nonzero;fill:rgb(76.078431%,90.980392%,92.156863%);fill-opacity:1;" d="M 6.988281 6.753906 C 6.988281 6.371094 7.296875 6.058594 7.671875 6.058594 C 8.050781 6.058594 8.359375 6.371094 8.359375 6.753906 C 8.359375 7.140625 8.050781 7.449219 7.671875 7.449219 C 7.296875 7.449219 6.988281 7.140625 6.988281 6.753906 Z M 6.988281 6.753906 "/>
<path style=" stroke:none;fill-rule:nonzero;fill:rgb(76.078431%,90.980392%,92.156863%);fill-opacity:1;" d="M 12.582031 6.753906 C 12.582031 6.371094 12.890625 6.058594 13.265625 6.058594 C 13.644531 6.058594 13.953125 6.371094 13.953125 6.753906 C 13.953125 7.140625 13.644531 7.449219 13.265625 7.449219 C 12.890625 7.449219 12.582031 7.140625 12.582031 6.753906 Z M 12.582031 6.753906 "/>
<path style=" stroke:none;fill-rule:nonzero;fill:rgb(30.980392%,25.882353%,29.019608%);fill-opacity:1;" d="M 9.453125 5.820312 L 11.429688 5.820312 C 11.933594 5.820312 12.34375 6.234375 12.34375 6.75 L 12.34375 7.246094 C 12.34375 7.757812 11.933594 8.175781 11.429688 8.175781 L 9.453125 8.175781 C 8.945312 8.175781 8.535156 7.757812 8.535156 7.246094 L 8.535156 6.75 C 8.535156 6.234375 8.945312 5.820312 9.453125 5.820312 Z M 9.453125 5.820312 "/>
<path style=" stroke:none;fill-rule:nonzero;fill:rgb(49.411765%,32.941176%,14.117647%);fill-opacity:1;" d="M 9.457031 7.84375 L 11.363281 7.84375 C 11.542969 7.84375 11.691406 7.992188 11.691406 8.175781 C 11.691406 8.359375 11.542969 8.507812 11.363281 8.507812 L 9.457031 8.507812 C 9.277344 8.507812 9.132812 8.359375 9.132812 8.175781 C 9.132812 7.992188 9.277344 7.84375 9.457031 7.84375 Z M 9.457031 7.84375 "/>
<path style=" stroke:none;fill-rule:nonzero;fill:rgb(100%,100%,95.294118%);fill-opacity:1;" d="M 9.457031 8.839844 L 11.363281 8.839844 C 11.542969 8.839844 11.691406 8.992188 11.691406 9.175781 C 11.691406 9.355469 11.542969 9.507812 11.363281 9.507812 L 9.457031 9.507812 C 9.277344 9.507812 9.132812 9.355469 9.132812 9.175781 C 9.132812 8.992188 9.277344 8.839844 9.457031 8.839844 Z M 9.457031 8.839844 "/>
<path style=" stroke:none;fill-rule:nonzero;fill:rgb(87.45098%,27.45098%,25.490196%);fill-opacity:1;" d="M 7.480469 7.84375 L 7.867188 7.84375 C 7.988281 7.84375 8.089844 7.945312 8.089844 8.070312 C 8.089844 8.195312 7.988281 8.296875 7.867188 8.296875 L 7.480469 8.296875 C 7.355469 8.296875 7.257812 8.195312 7.257812 8.070312 C 7.257812 7.945312 7.355469 7.84375 7.480469 7.84375 Z M 7.480469 7.84375 "/>
<path style=" stroke:none;fill-rule:nonzero;fill:rgb(87.45098%,27.45098%,25.490196%);fill-opacity:1;" d="M 13.074219 7.84375 L 13.460938 7.84375 C 13.582031 7.84375 13.683594 7.945312 13.683594 8.070312 C 13.683594 8.195312 13.582031 8.296875 13.460938 8.296875 L 13.074219 8.296875 C 12.949219 8.296875 12.851562 8.195312 12.851562 8.070312 C 12.851562 7.945312 12.949219 7.84375 13.074219 7.84375 Z M 13.074219 7.84375 "/>
<path style=" stroke:none;fill-rule:nonzero;fill:rgb(30.980392%,25.882353%,29.019608%);fill-opacity:1;" d="M 13.433594 2.371094 C 13.273438 1.714844 12.6875 1.222656 11.988281 1.222656 L 8.894531 1.222656 C 8.195312 1.222656 7.609375 1.714844 7.449219 2.371094 Z M 13.433594 2.371094 "/>
</g>
</svg>
