<svg id="_x31_px" height="20px" viewBox="0 0 24 24" width="20px" xmlns="http://www.w3.org/2000/svg"><path d="m17.5 24c-.058 0-.115-.01-.171-.03l-5.329-1.938-5.329 1.938c-.153.056-.325.033-.458-.06-.133-.094-.213-.247-.213-.41v-1.446c0-.52.264-.996.705-1.272l3.295-2.059v-6.484l-9.314 3.726c-.153.061-.329.042-.466-.05-.137-.094-.22-.249-.22-.415v-.958c0-.815.398-1.581 1.066-2.048l8.934-6.254v-4.24c0-1.103.897-2 2-2s2 .897 2 2v4.24l8.934 6.253c.668.468 1.066 1.234 1.066 2.049v.958c0 .166-.083.321-.22.414s-.313.112-.466.05l-9.314-3.726v6.484l3.295 2.06c.441.277.705.752.705 1.272v1.446c0 .163-.08.316-.213.41-.085.059-.186.09-.287.09zm-5.5-3c.058 0 .116.01.171.03l4.829 1.756v-.732c0-.173-.088-.332-.235-.424l-3.53-2.206c-.146-.091-.235-.252-.235-.424v-7.5c0-.166.083-.321.22-.414.138-.092.314-.111.466-.05l9.314 3.726v-.22c0-.489-.239-.948-.64-1.229l-9.147-6.403c-.133-.094-.213-.247-.213-.41v-4.5c0-.551-.449-1-1-1s-1 .449-1 1v4.5c0 .163-.08.316-.213.41l-9.147 6.403c-.401.28-.64.74-.64 1.229v.22l9.314-3.726c.152-.063.328-.043.466.05.137.093.22.248.22.414v7.5c0 .172-.089.333-.235.424l-3.53 2.206c-.147.092-.235.251-.235.424v.732l4.829-1.756c.055-.02.113-.03.171-.03z"/></svg>